<svg width="32" height="32" viewBox="0 0 32 32" fill="none" xmlns="http://www.w3.org/2000/svg">
    <path
        d="M16 0C7.168 0 0 7.168 0 16C0 24.832 7.168 32 16 32C24.832 32 32 24.832 32 16C32 7.168 24.832 0 16 0ZM16 23.2C12.016 23.2 8.8 19.984 8.8 16C8.8 12.016 12.016 8.8 16 8.8C19.984 8.8 23.2 12.016 23.2 16C23.2 19.984 19.984 23.2 16 23.2ZM16 14.4C15.12 14.4 14.4 15.12 14.4 16C14.4 16.88 15.12 17.6 16 17.6C16.88 17.6 17.6 16.88 17.6 16C17.6 15.12 16.88 14.4 16 14.4Z"
        fill="currentColor" />
</svg>