<svg width="32" height="32" viewBox="0 0 32 32" fill="none" xmlns="http://www.w3.org/2000/svg">
    <path
        d="M25.8 13.3867C24.8933 8.78668 20.8533 5.33334 16 5.33334C12.1467 5.33334 8.8 7.52001 7.13333 10.72C3.12 11.1467 0 14.5467 0 18.6667C0 23.08 3.58667 26.6667 8 26.6667H25.3333C29.0133 26.6667 32 23.68 32 20C32 16.48 29.2667 13.6267 25.8 13.3867ZM25.3333 24H8C5.05333 24 2.66667 21.6133 2.66667 18.6667C2.66667 15.72 5.05333 13.3333 8 13.3333H8.94667C9.82667 10.2533 12.64 8.00001 16 8.00001C20.0533 8.00001 23.3333 11.28 23.3333 15.3333V16H25.3333C27.5467 16 29.3333 17.7867 29.3333 20C29.3333 22.2133 27.5467 24 25.3333 24Z"
        fill="currentColor" />
</svg>