<svg width="32" height="32" viewBox="0 0 32 32" fill="none" xmlns="http://www.w3.org/2000/svg">
    <path
        d="M1.77778 17.7778H12.4444C13.4222 17.7778 14.2222 16.9778 14.2222 16V1.77778C14.2222 0.8 13.4222 0 12.4444 0H1.77778C0.8 0 0 0.8 0 1.77778V16C0 16.9778 0.8 17.7778 1.77778 17.7778ZM1.77778 32H12.4444C13.4222 32 14.2222 31.2 14.2222 30.2222V23.1111C14.2222 22.1333 13.4222 21.3333 12.4444 21.3333H1.77778C0.8 21.3333 0 22.1333 0 23.1111V30.2222C0 31.2 0.8 32 1.77778 32ZM19.5556 32H30.2222C31.2 32 32 31.2 32 30.2222V16C32 15.0222 31.2 14.2222 30.2222 14.2222H19.5556C18.5778 14.2222 17.7778 15.0222 17.7778 16V30.2222C17.7778 31.2 18.5778 32 19.5556 32ZM17.7778 1.77778V8.88889C17.7778 9.86667 18.5778 10.6667 19.5556 10.6667H30.2222C31.2 10.6667 32 9.86667 32 8.88889V1.77778C32 0.8 31.2 0 30.2222 0H19.5556C18.5778 0 17.7778 0.8 17.7778 1.77778Z"
        fill="currentColor" />
</svg>