<svg width="32" height="32" viewBox="0 0 32 32" fill="none" xmlns="http://www.w3.org/2000/svg">
    <path
        d="M24.8164 11.2941H21.8235V1.88235C21.8235 0.847059 20.9764 0 19.9412 0H12.4117C11.3765 0 10.5294 0.847059 10.5294 1.88235V11.2941H7.53646C5.86117 11.2941 5.01411 13.3271 6.19999 14.5129L14.84 23.1529C15.5741 23.8871 16.76 23.8871 17.4941 23.1529L26.1341 14.5129C27.32 13.3271 26.4917 11.2941 24.8164 11.2941ZM3 30.1176C3 31.1529 3.84706 32 4.88235 32H27.4706C28.5058 32 29.3529 31.1529 29.3529 30.1176C29.3529 29.0824 28.5058 28.2353 27.4706 28.2353H4.88235C3.84706 28.2353 3 29.0824 3 30.1176Z"
        fill="currentColor" />
</svg>