<svg width="32" height="32" viewBox="0 0 32 32" fill="none" xmlns="http://www.w3.org/2000/svg">
    <g clip-path="url(#clip0_30_1741)">
        <path
            d="M16 32C13.7867 32 11.7067 31.58 9.76 30.74C7.81333 29.9 6.12 28.76 4.68 27.32C3.24 25.88 2.1 24.1867 1.26 22.24C0.42 20.2933 0 18.2133 0 16C0 13.7867 0.42 11.7067 1.26 9.76C2.1 7.81333 3.24 6.12 4.68 4.68C6.12 3.24 7.81333 2.1 9.76 1.26C11.7067 0.42 13.7867 0 16 0C18.2133 0 20.2933 0.42 22.24 1.26C24.1867 2.1 25.88 3.24 27.32 4.68C28.76 6.12 29.9 7.81333 30.74 9.76C31.58 11.7067 32 13.7867 32 16C32 18.2133 31.58 20.2933 30.74 22.24C29.9 24.1867 28.76 25.88 27.32 27.32C25.88 28.76 24.1867 29.9 22.24 30.74C20.2933 31.58 18.2133 32 16 32ZM16 28.8C19.5733 28.8 22.6 27.56 25.08 25.08C27.56 22.6 28.8 19.5733 28.8 16C28.8 12.4267 27.56 9.4 25.08 6.92C22.6 4.44 19.5733 3.2 16 3.2C12.4267 3.2 9.4 4.44 6.92 6.92C4.44 9.4 3.2 12.4267 3.2 16C3.2 19.5733 4.44 22.6 6.92 25.08C9.4 27.56 12.4267 28.8 16 28.8Z"
            fill="black" />
        <path
            d="M17.1399 23.54C16.8332 23.8467 16.4532 24 15.9999 24C15.5466 24 15.1666 23.8467 14.8599 23.54C14.5532 23.2333 14.3999 22.8533 14.3999 22.4C14.3999 21.9467 14.5532 21.5667 14.8599 21.26C15.1666 20.9533 15.5466 20.8 15.9999 20.8C16.4532 20.8 16.8332 20.9533 17.1399 21.26C17.4466 21.5667 17.5999 21.9467 17.5999 22.4C17.5999 22.8533 17.4466 23.2333 17.1399 23.54Z"
            fill="black" />
        <path
            d="M17.5999 9.6V16C17.5999 16.8837 16.8836 17.6 15.9999 17.6C15.1162 17.6 14.3999 16.8837 14.3999 16V9.6C14.3999 8.71634 15.1162 8 15.9999 8C16.8836 8 17.5999 8.71634 17.5999 9.6Z"
            fill="black" />
    </g>
    <defs>
        <clipPath id="clip0_30_1741">
            <rect width="32" height="32" fill="white" />
        </clipPath>
    </defs>
</svg>