<svg width="32" height="32" viewBox="0 0 32 32" fill="none" xmlns="http://www.w3.org/2000/svg">
    <path
        d="M9.5 24C9.5 24.8837 10.2163 25.6 11.1 25.6H20.9C21.7837 25.6 22.5 24.8837 22.5 24C22.5 23.1163 21.7837 22.4 20.9 22.4H11.1C10.2163 22.4 9.5 23.1163 9.5 24ZM9.5 17.6C9.5 18.4837 10.2163 19.2 11.1 19.2H20.9C21.7837 19.2 22.5 18.4837 22.5 17.6C22.5 16.7163 21.7837 16 20.9 16H11.1C10.2163 16 9.5 16.7163 9.5 17.6ZM6.25 32C5.35625 32 4.59115 31.6867 3.95469 31.06C3.31823 30.4333 3 29.68 3 28.8V3.2C3 2.32 3.31823 1.56667 3.95469 0.94C4.59115 0.313333 5.35625 0 6.25 0H18.4306C18.9557 0 19.4597 0.20648 19.8338 0.574866L28.4032 9.01239C28.785 9.38831 29 9.90172 29 10.4375V28.8C29 29.68 28.6818 30.4333 28.0453 31.06C27.4089 31.6867 26.6437 32 25.75 32H6.25ZM19.625 11.2C18.5204 11.2 17.625 10.3046 17.625 9.2V5.2C17.625 4.09543 16.7296 3.2 15.625 3.2H6.25V26.8C6.25 27.9046 7.14543 28.8 8.25 28.8H23.75C24.8546 28.8 25.75 27.9046 25.75 26.8V13.2C25.75 12.0954 24.8546 11.2 23.75 11.2H19.625Z"
        fill="currentColor" />
</svg>