<svg width="32" height="32" viewBox="0 0 32 32" fill="none" xmlns="http://www.w3.org/2000/svg">
    <path
        d="M22.6667 29.3333L22.2667 27.3333C22.0001 27.2222 21.7501 27.1056 21.5167 26.9833C21.2834 26.8611 21.0445 26.7111 20.8001 26.5333L18.8667 27.1333L17.5334 24.8667L19.0667 23.5333C19.0223 23.2667 19.0001 22.9778 19.0001 22.6667C19.0001 22.3556 19.0223 22.0667 19.0667 21.8L17.5334 20.4667L18.8667 18.2L20.8001 18.8C21.0445 18.6222 21.2834 18.4722 21.5167 18.35C21.7501 18.2278 22.0001 18.1111 22.2667 18L22.6667 16H25.3334L25.7334 18C26.0001 18.1111 26.2501 18.2278 26.4834 18.35C26.7167 18.4722 26.9556 18.6222 27.2001 18.8L29.1334 18.2L30.4667 20.4667L28.9334 21.8C28.9779 22.0667 29.0001 22.3556 29.0001 22.6667C29.0001 22.9778 28.9779 23.2667 28.9334 23.5333L30.4667 24.8667L29.1334 27.1333L27.2001 26.5333C26.9556 26.7111 26.7167 26.8611 26.4834 26.9833C26.2501 27.1056 26.0001 27.2222 25.7334 27.3333L25.3334 29.3333H22.6667ZM24.0001 25.3333C24.7334 25.3333 25.3612 25.0722 25.8834 24.55C26.4056 24.0278 26.6667 23.4 26.6667 22.6667C26.6667 21.9333 26.4056 21.3056 25.8834 20.7833C25.3612 20.2611 24.7334 20 24.0001 20C23.2667 20 22.639 20.2611 22.1167 20.7833C21.5945 21.3056 21.3334 21.9333 21.3334 22.6667C21.3334 23.4 21.5945 24.0278 22.1167 24.55C22.639 25.0722 23.2667 25.3333 24.0001 25.3333ZM5.33341 24V8.00001V13.7333V13.3333V24ZM5.33341 26.6667C4.60008 26.6667 3.9723 26.4056 3.45008 25.8833C2.92786 25.3611 2.66675 24.7333 2.66675 24V8.00001C2.66675 7.26668 2.92786 6.6389 3.45008 6.11668C3.9723 5.59445 4.60008 5.33334 5.33341 5.33334H13.3334L16.0001 8.00001H26.6667C27.4001 8.00001 28.0279 8.26112 28.5501 8.78334C29.0723 9.30557 29.3334 9.93334 29.3334 10.6667V15.0333C28.9334 14.7445 28.5112 14.4945 28.0667 14.2833C27.6223 14.0722 27.1556 13.8889 26.6667 13.7333V10.6667H14.9001L12.2334 8.00001H5.33341V24H14.7667C14.8334 24.4667 14.939 24.9222 15.0834 25.3667C15.2279 25.8111 15.4001 26.2445 15.6001 26.6667H5.33341Z"
        fill="currentColor" />
</svg>