<svg width="32" height="32" viewBox="0 0 32 32" fill="none" xmlns="http://www.w3.org/2000/svg">
    <path
        d="M5.6 27C4.885 27 4.27292 26.7307 3.76375 26.1922C3.25458 25.6536 3 25.0063 3 24.25V7.75C3 6.99375 3.25458 6.34635 3.76375 5.80781C4.27292 5.26927 4.885 5 5.6 5H13.4L16 7.75H26.4C27.115 7.75 27.7271 8.01927 28.2362 8.55781C28.7454 9.09635 29 9.74375 29 10.5V24.25C29 25.0063 28.7454 25.6536 28.2362 26.1922C27.7271 26.7307 27.115 27 26.4 27H5.6ZM5.6 24.25H26.4V10.5H14.9275L12.3275 7.75H5.6V24.25Z"
        fill="currentColor" />
</svg>