<svg width="32" height="32" viewBox="0 0 32 32" fill="none" xmlns="http://www.w3.org/2000/svg">
<g clip-path="url(#clip0_30_841)">
<path d="M3.55556 32C2.57778 32 1.74074 31.6519 1.04444 30.9556C0.348148 30.2593 0 29.4222 0 28.4444V3.55556C0 2.57778 0.348148 1.74074 1.04444 1.04444C1.74074 0.348148 2.57778 0 3.55556 0H28.4444C29.4222 0 30.2593 0.348148 30.9556 1.04444C31.6519 1.74074 32 2.57778 32 3.55556V28.4444C32 29.4222 31.6519 30.2593 30.9556 30.9556C30.2593 31.6519 29.4222 32 28.4444 32H3.55556ZM3.55556 28.4444H28.4444V3.55556H3.55556V28.4444Z" fill="black"/>
<path d="M24.6667 24.8889H7.33337C6.50933 24.8889 6.03895 23.9481 6.53337 23.2889L9.86671 18.8444C10.2667 18.3111 11.0667 18.3111 11.4667 18.8444L13.8667 22.0444C14.2667 22.5778 15.0667 22.5778 15.4667 22.0444L19.2 17.0667C19.6 16.5333 20.4 16.5333 20.8 17.0667L25.4667 23.2889C25.9611 23.9481 25.4908 24.8889 24.6667 24.8889Z" fill="black"/>
</g>
<defs>
<clipPath id="clip0_30_841">
<rect width="32" height="32" fill="white"/>
</clipPath>
</defs>
</svg>
