<svg width="32" height="32" viewBox="0 0 32 32" fill="none" xmlns="http://www.w3.org/2000/svg">
    <path
        d="M16 0C7.168 0 0 7.168 0 16C0 24.832 7.168 32 16 32C24.832 32 32 24.832 32 16C32 7.168 24.832 0 16 0ZM16 28.8C8.944 28.8 3.2 23.056 3.2 16C3.2 8.944 8.944 3.2 16 3.2C23.056 3.2 28.8 8.944 28.8 16C28.8 23.056 23.056 28.8 16 28.8Z"
        fill="currentColor" />
    <path
        d="M14.3999 9.6C14.3999 10.4837 15.1162 11.2 15.9999 11.2C16.8836 11.2 17.5999 10.4837 17.5999 9.6C17.5999 8.71634 16.8836 8 15.9999 8C15.1162 8 14.3999 8.71634 14.3999 9.6Z"
        fill="currentColor" />
    <path
        d="M17.5999 22.4V16C17.5999 15.1163 16.8836 14.4 15.9999 14.4C15.1162 14.4 14.3999 15.1163 14.3999 16V22.4C14.3999 23.2836 15.1162 24 15.9999 24C16.8836 24 17.5999 23.2837 17.5999 22.4Z"
        fill="currentColor" />
</svg>