<svg width="32" height="32" viewBox="0 0 32 32" fill="none" xmlns="http://www.w3.org/2000/svg">
    <path
        d="M1 30V6C1 5.26667 1.26111 4.63889 1.78333 4.11667C2.30556 3.59444 2.93333 3.33333 3.66667 3.33333H18.3333C19.0667 3.33333 19.6944 3.59444 20.2167 4.11667C20.7389 4.63889 21 5.26667 21 6V6.56667C20.4667 6.81111 19.9778 7.11111 19.5333 7.46667C19.0889 7.82222 18.6889 8.22222 18.3333 8.66667V6H3.66667V22H18.3333V16.6667C18.6889 17.1111 19.0889 17.5111 19.5333 17.8667C19.9778 18.2222 20.4667 18.5222 21 18.7667V22C21 22.7333 20.7389 23.3611 20.2167 23.8833C19.6944 24.4056 19.0667 24.6667 18.3333 24.6667H6.33333L1 30ZM6.33333 19.3333H11.6667V16.6667H6.33333V19.3333ZM23.6667 16.6667C22.5556 16.6667 21.6111 16.2778 20.8333 15.5C20.0556 14.7222 19.6667 13.7778 19.6667 12.6667C19.6667 11.5556 20.0556 10.6111 20.8333 9.83333C21.6111 9.05556 22.5556 8.66667 23.6667 8.66667C23.9111 8.66667 24.1444 8.68889 24.3667 8.73333C24.5889 8.77778 24.8 8.83333 25 8.9V2H30.3333V4.66667H27.6667V12.6667C27.6667 13.7778 27.2778 14.7222 26.5 15.5C25.7222 16.2778 24.7778 16.6667 23.6667 16.6667ZM6.33333 15.3333H15.6667V12.6667H6.33333V15.3333ZM6.33333 11.3333H15.6667V8.66667H6.33333V11.3333Z"
        fill="currentColor" />
</svg>