<svg width="32" height="32" viewBox="0 0 32 32" fill="none" xmlns="http://www.w3.org/2000/svg">
    <path
        d="M6.57143 32.0001C9.08571 32.0001 11.1429 29.9429 11.1429 27.4286V4.57149C11.1429 2.0572 9.08571 6.10352e-05 6.57143 6.10352e-05C4.05714 6.10352e-05 2 2.0572 2 4.57149V27.4286C2 29.9429 4.05714 32.0001 6.57143 32.0001ZM20.2857 4.57149V27.4286C20.2857 29.9429 22.3429 32.0001 24.8571 32.0001C27.3714 32.0001 29.4286 29.9429 29.4286 27.4286V4.57149C29.4286 2.0572 27.3714 6.10352e-05 24.8571 6.10352e-05C22.3429 6.10352e-05 20.2857 2.0572 20.2857 4.57149Z"
        fill="currentColor" />
</svg>