<svg width="32" height="32" viewBox="0 0 32 32" fill="none" xmlns="http://www.w3.org/2000/svg">
    <path
        d="M27.7867 2.96L12.4 13.8133C10.9067 14.88 10.9067 17.12 12.4 18.16L27.7867 29.04C29.5733 30.2667 32 29.0133 32 26.8533L32 5.14667C32 2.98667 29.5733 1.73333 27.7867 2.96ZM5.33333 29.3333L5.33333 2.66666C5.33333 1.2 4.13334 -2.43618e-06 2.66667 -2.5644e-06C1.2 -2.69262e-06 2.69262e-06 1.2 2.5644e-06 2.66666L2.33127e-07 29.3333C1.04907e-07 30.8 1.2 32 2.66667 32C4.13333 32 5.33333 30.8 5.33333 29.3333Z"
        fill="currentColor" />
</svg>