<svg width="32" height="32" viewBox="0 0 32 32" fill="none" xmlns="http://www.w3.org/2000/svg">
    <path fill-rule="evenodd" clip-rule="evenodd"
        d="M17.5 2C17.5 1.17157 16.8284 0.5 16 0.5C15.1716 0.5 14.5 1.17157 14.5 2V14.5L2 14.5C1.17157 14.5 0.5 15.1716 0.5 16C0.5 16.8284 1.17157 17.5 2 17.5H14.5V30C14.5 30.8284 15.1716 31.5 16 31.5C16.8284 31.5 17.5 30.8284 17.5 30V17.5H30C30.8284 17.5 31.5 16.8284 31.5 16C31.5 15.1716 30.8284 14.5 30 14.5L17.5 14.5V2Z"
        fill="currentColor" />
</svg>