<svg width="32" height="32" viewBox="0 0 32 32" fill="none" xmlns="http://www.w3.org/2000/svg">
    <path
        d="M27.9 17.5667C27.9667 17.0667 28 16.55 28 16C28 15.4667 27.9667 14.9334 27.8834 14.4334L31.2667 11.8001C31.5667 11.5667 31.65 11.1167 31.4667 10.7834L28.2667 5.25008C28.0667 4.88341 27.65 4.76674 27.2834 4.88341L23.3 6.48341C22.4667 5.85007 21.5834 5.31674 20.6 4.91674L20 0.683423C19.9334 0.283424 19.6 9.15527e-05 19.2 9.15527e-05H12.8001C12.4001 9.15527e-05 12.0834 0.283424 12.0167 0.683423L11.4167 4.91674C10.4334 5.31674 9.53341 5.86674 8.71675 6.48341L4.73342 4.88341C4.36676 4.75008 3.95009 4.88341 3.75009 5.25008L0.566768 10.7834C0.366768 11.1334 0.433435 11.5667 0.766767 11.8001L4.15009 14.4334C4.06676 14.9334 4.00009 15.4834 4.00009 16C4.00009 16.5167 4.03342 17.0667 4.11676 17.5667L0.733434 20.2C0.433435 20.4334 0.350102 20.8834 0.533435 21.2167L3.73343 26.75C3.93342 27.1167 4.35009 27.2333 4.71676 27.1167L8.70008 25.5167C9.53341 26.15 10.4167 26.6833 11.4001 27.0833L12.0001 31.3167C12.0834 31.7167 12.4001 32 12.8001 32H19.2C19.6 32 19.9334 31.7167 19.9834 31.3167L20.5834 27.0833C21.5667 26.6833 22.4667 26.15 23.2834 25.5167L27.2667 27.1167C27.6334 27.25 28.05 27.1167 28.25 26.75L31.45 21.2167C31.65 20.85 31.5667 20.4334 31.25 20.2L27.9 17.5667ZM16.0001 22C12.7001 22 10.0001 19.3 10.0001 16C10.0001 12.7001 12.7001 10.0001 16.0001 10.0001C19.3 10.0001 22 12.7001 22 16C22 19.3 19.3 22 16.0001 22Z"
        fill="currentColor" />
</svg>