<svg width="32" height="32" viewBox="0 0 32 32" fill="none" xmlns="http://www.w3.org/2000/svg">
    <g clip-path="url(#clip0_30_856)">
        <path
            d="M0 15.9999C0 16.9818 0.795942 17.7777 1.77778 17.7777C2.75961 17.7777 3.55556 16.9818 3.55556 15.9999C3.55556 15.0181 2.75961 14.2222 1.77778 14.2222C0.795942 14.2222 0 15.0181 0 15.9999ZM7.11111 30.2221C7.11111 31.2039 7.90705 31.9999 8.88889 31.9999C9.87072 31.9999 10.6667 31.2039 10.6667 30.2221C10.6667 29.2403 9.87072 28.4443 8.88889 28.4443C7.90705 28.4443 7.11111 29.2403 7.11111 30.2221ZM0 8.88886C0 9.87069 0.795942 10.6666 1.77778 10.6666C2.75961 10.6666 3.55556 9.87069 3.55556 8.88886C3.55556 7.90702 2.75961 7.11108 1.77778 7.11108C0.795942 7.11108 0 7.90702 0 8.88886ZM17.7778 1.77777C17.7778 0.795935 16.9818 0 16 0C15.0182 0 14.2222 0.795935 14.2222 1.77777C14.2222 2.75961 15.0182 3.55554 16 3.55554C16.9818 3.55554 17.7778 2.75961 17.7778 1.77777ZM0 23.111C0 24.0929 0.795942 24.8888 1.77778 24.8888C2.75961 24.8888 3.55556 24.0929 3.55556 23.111C3.55556 22.1292 2.75961 21.3333 1.77778 21.3333C0.795942 21.3333 0 22.1292 0 23.111ZM10.6667 1.77777C10.6667 0.795935 9.87072 0 8.88889 0C7.90705 0 7.11111 0.795935 7.11111 1.77777C7.11111 2.75961 7.90705 3.55554 8.88889 3.55554C9.87072 3.55554 10.6667 2.75961 10.6667 1.77777ZM3.55556 1.77777C3.55556 0.795935 2.75961 0 1.77778 0C0.795942 0 0 0.795935 0 1.77777C0 2.75961 0.795942 3.55554 1.77778 3.55554C2.75961 3.55554 3.55556 2.75961 3.55556 1.77777ZM14.2222 30.2221C14.2222 31.2039 15.0182 31.9999 16 31.9999C16.9818 31.9999 17.7778 31.2039 17.7778 30.2221C17.7778 29.2403 16.9818 28.4443 16 28.4443C15.0182 28.4443 14.2222 29.2403 14.2222 30.2221ZM28.4444 15.9999C28.4444 16.9818 29.2404 17.7777 30.2222 17.7777C31.2041 17.7777 32 16.9818 32 15.9999C32 15.0181 31.2041 14.2222 30.2222 14.2222C29.2404 14.2222 28.4444 15.0181 28.4444 15.9999ZM28.4444 8.88886C28.4444 9.87069 29.2404 10.6666 30.2222 10.6666C31.2041 10.6666 32 9.87069 32 8.88886C32 7.90702 31.2041 7.11108 30.2222 7.11108C29.2404 7.11108 28.4444 7.90702 28.4444 8.88886ZM28.4444 23.111C28.4444 24.0929 29.2404 24.8888 30.2222 24.8888C31.2041 24.8888 32 24.0929 32 23.111C32 22.1292 31.2041 21.3333 30.2222 21.3333C29.2404 21.3333 28.4444 22.1292 28.4444 23.111ZM21.3333 30.2221C21.3333 31.2039 22.1293 31.9999 23.1111 31.9999C24.0929 31.9999 24.8889 31.2039 24.8889 30.2221C24.8889 29.2403 24.0929 28.4443 23.1111 28.4443C22.1293 28.4443 21.3333 29.2403 21.3333 30.2221ZM21.3333 1.77777C21.3333 2.75961 22.1293 3.55554 23.1111 3.55554C24.0929 3.55554 24.8889 2.75961 24.8889 1.77777C24.8889 0.795935 24.0929 0 23.1111 0C22.1293 0 21.3333 0.795935 21.3333 1.77777ZM28.4444 1.77777C28.4444 2.75961 29.2404 3.55554 30.2222 3.55554C31.2041 3.55554 32 2.75961 32 1.77777C32 0.795935 31.2041 0 30.2222 0C29.2404 0 28.4444 0.795935 28.4444 1.77777ZM28.4444 30.2221C28.4444 31.2039 29.2404 31.9999 30.2222 31.9999C31.2041 31.9999 32 31.2039 32 30.2221C32 29.2403 31.2041 28.4443 30.2222 28.4443C29.2404 28.4443 28.4444 29.2403 28.4444 30.2221ZM0 30.2221C0 31.2039 0.795942 31.9999 1.77778 31.9999C2.75961 31.9999 3.55556 31.2039 3.55556 30.2221C3.55556 29.2403 2.75961 28.4443 1.77778 28.4443C0.795942 28.4443 0 29.2403 0 30.2221ZM7.11111 22.8888C7.11111 23.9934 8.00654 24.8888 9.11111 24.8888H22.8889C23.9935 24.8888 24.8889 23.9934 24.8889 22.8888V9.11108C24.8889 8.00651 23.9935 7.11108 22.8889 7.11108H9.11111C8.00654 7.11108 7.11111 8.00651 7.11111 9.11108V22.8888ZM10.6667 12.6666C10.6667 11.5621 11.5621 10.6666 12.6667 10.6666H19.3333C20.4379 10.6666 21.3333 11.5621 21.3333 12.6666V19.3333C21.3333 20.4378 20.4379 21.3333 19.3333 21.3333H12.6667C11.5621 21.3333 10.6667 20.4378 10.6667 19.3333V12.6666Z"
            fill="currentColor" />
    </g>
    <defs>
        <clipPath id="clip0_30_856">
            <rect width="32" height="32" fill="white" />
        </clipPath>
    </defs>
</svg>