<svg width="32" height="32" viewBox="0 0 32 32" fill="none" xmlns="http://www.w3.org/2000/svg">
    <path
        d="M12.6429 24.2856H20.3571C21.4179 24.2856 22.2857 23.4177 22.2857 22.357V12.7141H25.3521C27.0686 12.7141 27.9364 10.6313 26.7214 9.41626L17.8693 0.564108C17.1171 -0.188036 15.9021 -0.188036 15.15 0.564108L6.29786 9.41626C5.08286 10.6313 5.93143 12.7141 7.64786 12.7141H10.7143V22.357C10.7143 23.4177 11.5821 24.2856 12.6429 24.2856ZM4.92857 28.1427H28.0714C29.1321 28.1427 30 29.0106 30 30.0713C30 31.132 29.1321 31.9999 28.0714 31.9999H4.92857C3.86786 31.9999 3 31.132 3 30.0713C3 29.0106 3.86786 28.1427 4.92857 28.1427Z"
        fill="currentColor" />
</svg>