<svg width="32" height="32" viewBox="0 0 32 32" fill="none" xmlns="http://www.w3.org/2000/svg">
    <path
        d="M16.0001 32C14.9001 32 13.9585 31.6083 13.1751 30.825C12.3918 30.0417 12.0001 29.1 12.0001 28C12.0001 26.9 12.3918 25.9583 13.1751 25.175C13.9585 24.3917 14.9001 24 16.0001 24C17.1001 24 18.0418 24.3917 18.8251 25.175C19.6084 25.9583 20.0001 26.9 20.0001 28C20.0001 29.1 19.6084 30.0417 18.8251 30.825C18.0418 31.6083 17.1001 32 16.0001 32ZM16.0001 20C14.9001 20 13.9585 19.6083 13.1751 18.825C12.3918 18.0417 12.0001 17.1 12.0001 16C12.0001 14.9 12.3918 13.9583 13.1751 13.175C13.9585 12.3917 14.9001 12 16.0001 12C17.1001 12 18.0418 12.3917 18.8251 13.175C19.6084 13.9583 20.0001 14.9 20.0001 16C20.0001 17.1 19.6084 18.0417 18.8251 18.825C18.0418 19.6083 17.1001 20 16.0001 20ZM16.0001 8.00002C14.9001 8.00002 13.9585 7.60835 13.1751 6.82502C12.3918 6.04169 12.0001 5.10002 12.0001 4.00003C12.0001 2.90003 12.3918 1.95836 13.1751 1.17503C13.9585 0.391697 14.9001 3.05176e-05 16.0001 3.05176e-05C17.1001 3.05176e-05 18.0418 0.391697 18.8251 1.17503C19.6084 1.95836 20.0001 2.90003 20.0001 4.00003C20.0001 5.10002 19.6084 6.04169 18.8251 6.82502C18.0418 7.60835 17.1001 8.00002 16.0001 8.00002Z"
        fill="currentColor" />
</svg>