<svg width="32" height="32" viewBox="0 0 32 32" fill="none" xmlns="http://www.w3.org/2000/svg">
    <path
        d="M18.1375 30.1375C17.5625 30.7125 16.85 31 16 31C15.15 31 14.4375 30.7125 13.8626 30.1375C13.2876 29.5625 13.0001 28.85 13.0001 28C13.0001 27.15 13.2876 26.4375 13.8626 25.8625C14.4375 25.2875 15.15 25 16 25C16.85 25 17.5625 25.2875 18.1375 25.8625C18.7125 26.4375 19 27.15 19 28C19 28.85 18.7125 29.5625 18.1375 30.1375Z"
        fill="currentColor" />
    <path
        d="M19 4.0001V16C19 17.6568 17.6569 19 16 19C14.3432 19 13.0001 17.6568 13.0001 16V4.0001C13.0001 2.34326 14.3432 1.00012 16 1.00012C17.6569 1.00012 19 2.34326 19 4.0001Z"
        fill="currentColor" />
</svg>