<svg width="32" height="32" viewBox="0 0 32 32" fill="none" xmlns="http://www.w3.org/2000/svg">
    <path
        d="M4.96 30C3.44 28.5121 2.23333 26.7604 1.34 24.7449C0.446667 22.7295 0 20.5585 0 18.2319C0 15.9865 0.42 13.8763 1.26 11.9014C2.1 9.92657 3.24 8.2087 4.68 6.74783C6.12 5.28696 7.81333 4.13043 9.76 3.27826C11.7067 2.42609 13.7867 2 16 2C18.2133 2 20.2933 2.42609 22.24 3.27826C24.1867 4.13043 25.88 5.28696 27.32 6.74783C28.76 8.2087 29.9 9.92657 30.74 11.9014C31.58 13.8763 32 15.9865 32 18.2319C32 20.5585 31.5533 22.7362 30.66 24.7652C29.7667 26.7942 28.56 28.5391 27.04 30L24.8 27.7275C26.0267 26.5372 27 25.1237 27.72 23.487C28.44 21.8502 28.8 20.0986 28.8 18.2319C28.8 14.6068 27.56 11.5362 25.08 9.02029C22.6 6.50435 19.5733 5.24638 16 5.24638C12.4267 5.24638 9.4 6.50435 6.92 9.02029C4.44 11.5362 3.2 14.6068 3.2 18.2319C3.2 20.0986 3.56 21.8435 4.28 23.4667C5 25.0899 5.98667 26.4966 7.24 27.687L4.96 30ZM9.48 25.4145C8.54667 24.5217 7.8 23.4599 7.24 22.229C6.68 20.9981 6.4 19.6657 6.4 18.2319C6.4 15.5266 7.33333 13.2271 9.2 11.3333C11.0667 9.43961 13.3333 8.49275 16 8.49275C18.6667 8.49275 20.9333 9.43961 22.8 11.3333C24.6667 13.2271 25.6 15.5266 25.6 18.2319C25.6 19.6657 25.32 21.0048 24.76 22.2493C24.2 23.4937 23.4533 24.5488 22.52 25.4145L20.24 23.1014C20.9067 22.4792 21.4333 21.7488 21.82 20.9101C22.2067 20.0715 22.4 19.1787 22.4 18.2319C22.4 16.4464 21.7733 14.9179 20.52 13.6464C19.2667 12.3749 17.76 11.7391 16 11.7391C14.24 11.7391 12.7333 12.3749 11.48 13.6464C10.2267 14.9179 9.6 16.4464 9.6 18.2319C9.6 19.2058 9.79333 20.1053 10.18 20.9304C10.5667 21.7556 11.0933 22.4792 11.76 23.1014L9.48 25.4145ZM16 21.4783C15.12 21.4783 14.3667 21.1604 13.74 20.5246C13.1133 19.8889 12.8 19.1246 12.8 18.2319C12.8 17.3391 13.1133 16.5749 13.74 15.9391C14.3667 15.3034 15.12 14.9855 16 14.9855C16.88 14.9855 17.6333 15.3034 18.26 15.9391C18.8867 16.5749 19.2 17.3391 19.2 18.2319C19.2 19.1246 18.8867 19.8889 18.26 20.5246C17.6333 21.1604 16.88 21.4783 16 21.4783Z"
        fill="currentColor" />
</svg>