<?xml version="1.0" encoding="utf-8" ?>
<svg xmlns="http://www.w3.org/2000/svg" xmlns:xlink="http://www.w3.org/1999/xlink" width="32" height="32" viewBox="0 0 32 32">
	<path transform="matrix(1 0 0 1 0 0)" d="M0 16C0 7.168 7.168 0 16 0C24.832 0 32 7.168 32 16C32 24.832 24.832 32 16 32C7.168 32 0 24.832 0 16ZM16 2Q13.1524 2 10.5535 3.09985Q8.04152 4.1629 6.10221 6.10221Q4.1629 8.04152 3.09986 10.5535Q2 13.1524 2 16Q2 18.8476 3.09985 21.4465Q4.16291 23.9585 6.10221 25.8978Q8.04153 27.8371 10.5535 28.9001Q13.1524 30 16 30Q18.8476 30 21.4465 28.9001Q23.9585 27.8371 25.8978 25.8978Q27.8371 23.9585 28.9001 21.4465Q30 18.8476 30 16Q30 13.1524 28.9001 10.5535Q27.8371 8.04153 25.8978 6.10221Q23.9585 4.16291 21.4465 3.09986Q18.8476 2 16 2ZM12.4165 24.4778Q14.1274 25.2 16 25.2Q17.8726 25.2 19.5835 24.4778Q21.2362 23.7802 22.5082 22.5082Q23.7802 21.2362 24.4778 19.5835Q25.2 17.8726 25.2 16Q25.2 14.1274 24.4778 12.4165Q23.7802 10.7638 22.5082 9.49179Q21.2362 8.21979 19.5835 7.52217Q17.8726 6.8 16 6.8Q14.1274 6.8 12.4165 7.52217Q10.7638 8.21979 9.49179 9.49179Q8.21979 10.7638 7.52217 12.4165Q6.8 14.1274 6.8 16Q6.8 17.8726 7.52217 19.5835Q8.21979 21.2362 9.49179 22.5082Q10.7638 23.7802 12.4165 24.4778ZM8.8 16C8.8 19.984 12.016 23.2 16 23.2C19.984 23.2 23.2 19.984 23.2 16C23.2 12.016 19.984 8.8 16 8.8C12.016 8.8 8.8 12.016 8.8 16Z" fill-rule="evenodd" fill="rgb(58, 58, 58)"/>
</svg>
