<?xml version="1.0" encoding="utf-8" ?>
<svg xmlns="http://www.w3.org/2000/svg" xmlns:xlink="http://www.w3.org/1999/xlink" width="32" height="32" viewBox="0 0 32 32">
	<defs>
		<clipPath id="clipPath6398430882">
			<path transform="matrix(1 0 0 1 0 0)" d="M0 0L32 0L32 32L0 32L0 0Z" fill-rule="nonzero"/>
		</clipPath>
	</defs>
	<g clip-path="url(#clipPath6398430882)">
		<path transform="matrix(1 0 0 1 5.33333 5.33333)" d="M-1.06066 1.06066C-1.64644 0.474879 -1.64644 -0.474879 -1.06066 -1.06066C-0.474879 -1.64644 0.474879 -1.64644 1.06066 -1.06066L22.394 20.2727C22.9798 20.8585 22.9798 21.8082 22.394 22.394C21.8082 22.9798 20.8585 22.9798 20.2727 22.394L-1.06066 1.06066Z" fill-rule="evenodd" fill="rgb(51, 51, 51)"/>
		<path transform="matrix(1 0 0 1 5.33333 5.33333)" d="M22.394 -1.06066C21.8082 -1.64644 20.8585 -1.64644 20.2727 -1.06066L-1.06066 20.2727C-1.64644 20.8585 -1.64644 21.8082 -1.06066 22.394C-0.474879 22.9798 0.474879 22.9798 1.06066 22.394L22.394 1.06066C22.9798 0.474878 22.9798 -0.474879 22.394 -1.06066Z" fill-rule="evenodd" fill="rgb(51, 51, 51)"/>
	</g>
</svg>
