<?xml version="1.0" encoding="utf-8" ?>
<svg xmlns="http://www.w3.org/2000/svg" xmlns:xlink="http://www.w3.org/1999/xlink" width="32" height="32" viewBox="0 0 32 32">
	<path transform="matrix(1 0 0 1 0 5.33333)" d="M25.8 8.05333C24.8933 3.45333 20.8533 0 16 0C12.1467 0 8.8 2.18667 7.13333 5.38667C3.12 5.81333 0 9.21333 0 13.3333C0 17.7467 3.58667 21.3333 8 21.3333L25.3333 21.3333C29.0133 21.3333 32 18.3467 32 14.6667C32 11.1467 29.2667 8.29333 25.8 8.05333ZM25.3333 18.6667L8 18.6667C5.05333 18.6667 2.66667 16.28 2.66667 13.3333C2.66667 10.3867 5.05333 8 8 8L8.94667 8C9.82667 4.92 12.64 2.66667 16 2.66667C20.0533 2.66667 23.3333 5.94667 23.3333 10L23.3333 10.6667L25.3333 10.6667C27.5467 10.6667 29.3333 12.4533 29.3333 14.6667C29.3333 16.88 27.5467 18.6667 25.3333 18.6667Z" fill-rule="nonzero" fill="rgb(58, 58, 58)"/>
</svg>
