<?xml version="1.0" encoding="utf-8" ?>
<svg xmlns="http://www.w3.org/2000/svg" xmlns:xlink="http://www.w3.org/1999/xlink" width="32" height="32" viewBox="0 0 32 32">
	<defs>
		<clipPath id="clipPath3440014046">
			<path transform="matrix(1 0 0 1 0 0)" d="M0 0L32 0L32 32L0 32L0 0Z" fill-rule="nonzero"/>
		</clipPath>
	</defs>
	<g clip-path="url(#clipPath3440014046)">
		<path transform="matrix(1 0 0 1 2.66667 19.3333)" d="M-1 0L-1 8.66667Q-1 8.76516 -0.980785 8.86176Q-0.96157 8.95836 -0.923879 9.04935Q-0.886188 9.14034 -0.83147 9.22224Q-0.776751 9.30413 -0.707107 9.37377Q-0.637463 9.44342 -0.55557 9.49814Q-0.473678 9.55285 -0.382683 9.59055Q-0.291689 9.62824 -0.19509 9.64745Q-0.0984914 9.66667 0 9.66667L26.6667 9.66667Q26.7652 9.66667 26.8618 9.64745Q26.9584 9.62824 27.0493 9.59055Q27.1403 9.55285 27.2222 9.49814Q27.3041 9.44342 27.3738 9.37377Q27.4434 9.30413 27.4981 9.22224Q27.5529 9.14034 27.5905 9.04935Q27.6282 8.95835 27.6475 8.86176Q27.6667 8.76516 27.6667 8.66667L27.6667 0Q27.6667 -0.0984914 27.6475 -0.19509Q27.6282 -0.291689 27.5905 -0.382683Q27.5529 -0.473678 27.4981 -0.55557Q27.4434 -0.637463 27.3738 -0.707107Q27.3041 -0.776751 27.2222 -0.831469Q27.1403 -0.886188 27.0493 -0.923879Q26.9584 -0.961571 26.8618 -0.980785Q26.7652 -1 26.6667 -1L0 -1Q-0.0984914 -1 -0.19509 -0.980785Q-0.291689 -0.96157 -0.382683 -0.923879Q-0.473678 -0.886188 -0.55557 -0.83147Q-0.637463 -0.776751 -0.707107 -0.707107Q-0.776751 -0.637463 -0.831469 -0.55557Q-0.886188 -0.473678 -0.923879 -0.382683Q-0.961571 -0.291689 -0.980785 -0.19509Q-1 -0.0984914 -1 0ZM1 1L25.6667 1L25.6667 7.66667L1 7.66667L1 1Z" fill-rule="nonzero" fill="rgb(51, 51, 51)"/>
		<path transform="matrix(1 0 0 1 22 22)" d="M1.66667 3.33333C2.58713 3.33333 3.33333 2.58713 3.33333 1.66667C3.33333 0.746201 2.58713 0 1.66667 0C0.746201 0 0 0.746201 0 1.66667C0 2.58713 0.746201 3.33333 1.66667 3.33333Z" fill-rule="nonzero" fill="rgb(51, 51, 51)"/>
		<path transform="matrix(1 0 0 1 2.66667 3.33268)" d="M-0.978668 15.7951L2.38025 -0.205447Q2.3978 -0.289074 2.42929 -0.368509Q2.46078 -0.447945 2.50529 -0.520887Q2.5498 -0.593829 2.60604 -0.658161Q2.66228 -0.722494 2.72861 -0.776353Q2.79495 -0.830211 2.86947 -0.872034Q2.94398 -0.913857 3.02451 -0.942431Q3.10504 -0.971005 3.18925 -0.985503Q3.27346 -1 3.35891 -1L23.347 -1Q23.4326 -1 23.517 -0.985453Q23.6013 -0.970906 23.682 -0.942234Q23.7626 -0.913563 23.8372 -0.871602Q23.9118 -0.829641 23.9782 -0.775612Q24.0446 -0.721582 24.1008 -0.657055Q24.1571 -0.592528 24.2015 -0.519381Q24.246 -0.446235 24.2774 -0.366597Q24.3088 -0.286959 24.3261 -0.203146L27.6458 15.7974L25.6875 16.2037L22.3679 0.203146L23.347 0L23.347 1L3.35891 1L3.35891 0L4.33758 0.205447L0.978668 16.206L-0.978668 15.7951Z" fill-rule="nonzero" fill="rgb(51, 51, 51)"/>
	</g>
</svg>
