<?xml version="1.0" encoding="utf-8" ?>
<svg xmlns="http://www.w3.org/2000/svg" xmlns:xlink="http://www.w3.org/1999/xlink" width="32" height="32" viewBox="0 0 32 32">
	<path transform="matrix(1 0 0 1 5.33732 0.00578499)" d="M10.6614 3.55467L10.6614 18.7509C8.99066 17.7911 6.92895 17.4179 4.74283 18.1821C2.3612 19.0353 0.530543 21.1503 0.103983 23.6385C-0.713591 28.5084 3.40983 32.6674 8.26195 31.9032C11.7455 31.3522 14.216 28.153 14.216 24.6161L14.216 7.10934L17.7707 7.10934C19.7258 7.10934 21.3254 5.50974 21.3254 3.55467C21.3254 1.5996 19.7258 0 17.7707 0L14.216 0C12.261 0 10.6614 1.5996 10.6614 3.55467Z" fill-rule="nonzero" fill="rgb(58, 58, 58)"/>
</svg>
