<?xml version="1.0" encoding="utf-8" ?>
<svg xmlns="http://www.w3.org/2000/svg" xmlns:xlink="http://www.w3.org/1999/xlink" width="32" height="32" viewBox="0 0 32 32">
	<path transform="matrix(1 0 0 1 1 5.66575)" d="M15.292 0C12.0167 0 9.17071 1.71256 7.47941 4.25256C3.32431 4.48872 0 7.91874 0 12.1313C0 13.7749 0.505 15.3091 1.36511 16.576C1.61917 16.951 3.78185 20.0537 7.92363 20.0537L9.95757 20.0537C10.2249 20.0574 10.4537 19.9655 10.644 19.7778C10.8344 19.5901 10.9296 19.3626 10.9296 19.0953C10.9296 18.828 10.8344 18.6005 10.644 18.4129C10.4537 18.2252 10.2249 18.1332 9.95757 18.137L7.92363 18.137C4.72225 18.137 3.18618 15.8463 2.95109 15.5004C2.29764 14.5379 1.91665 13.3837 1.91665 12.1313C1.91665 8.80248 4.59484 6.12428 7.92363 6.12428C7.9409 6.12428 7.95756 6.12663 7.97479 6.12678C8.7139 6.133 9.41836 6.2701 10.0686 6.51859C10.4328 6.65818 11.4559 7.18651 12.7115 7.89868C13.4956 8.34339 14.5064 8.9511 15.4579 9.51585C12.2267 10.8268 8.45476 12.3773 5.64138 13.5475C5.39154 13.6457 5.21422 13.8183 5.10942 14.0654C5.00462 14.3125 5.00377 14.56 5.10689 14.8078C5.21 15.0556 5.38613 15.2294 5.63529 15.3293C5.88445 15.4291 6.13188 15.425 6.37759 15.3169C9.57356 13.9876 14.0958 12.1207 17.5193 10.7424C21.6685 13.2531 25.668 15.7626 26.9166 16.5473C26.3125 17.2529 25.2049 18.1383 23.3417 18.1383L13.7634 18.1383C13.4961 18.1345 13.2673 18.2264 13.077 18.4141C12.8867 18.6018 12.7915 18.8293 12.7915 19.0966C12.7915 19.3639 12.8867 19.5914 13.077 19.779C13.2673 19.9667 13.4961 20.0587 13.7634 20.0549L23.3417 20.0549C26.9253 20.0549 28.6838 17.4905 29.0991 16.7794L29.1116 16.7607L29.1165 16.7519L29.121 16.7438L29.1253 16.7357C29.1316 16.7243 29.1376 16.7128 29.1435 16.7011C29.1493 16.6895 29.1549 16.6777 29.1602 16.6658C29.1701 16.6434 29.1791 16.6206 29.1872 16.5975C29.1953 16.5744 29.2026 16.551 29.2089 16.5273C29.695 15.6073 30 14.5732 30 13.4639C30 10.5455 28.0834 8.06668 25.4455 7.20614C25.4156 7.19126 25.385 7.17799 25.3537 7.16631C25.3224 7.15463 25.2906 7.14462 25.2583 7.13626C24.671 6.96493 24.0488 6.87297 23.409 6.87297C22.7285 6.87297 22.0701 6.97696 21.45 7.16995C20.8268 7.364 19.3834 7.93379 17.6953 8.60868C16.2412 7.73484 14.8215 6.89066 13.6574 6.23035C12.3759 5.50351 11.4117 4.98039 10.7524 4.72798C10.4189 4.60054 10.0713 4.50303 9.71799 4.42101C11.0923 2.89076 13.0674 1.91665 15.292 1.91665C17.2176 1.91665 18.9628 2.63562 20.292 3.82081C20.4883 4.00632 20.7213 4.09331 20.9912 4.08179C21.261 4.07026 21.4858 3.96371 21.6656 3.76214C21.8453 3.56057 21.9256 3.32509 21.9063 3.0557C21.8869 2.7863 21.7739 2.56468 21.5673 2.39082C19.9014 0.905487 17.6968 0 15.292 0ZM23.409 8.78962C23.5206 8.78962 23.6277 8.80572 23.7372 8.81332C23.9513 8.82825 24.1611 8.85581 24.3661 8.89818C24.4278 8.91103 24.49 8.92284 24.5508 8.93811C26.5848 9.44466 28.0834 11.2667 28.0834 13.4639C28.0834 13.9584 27.9971 14.4293 27.8538 14.8752C26.6104 14.0995 23.2972 12.0358 19.7542 9.87023C20.5925 9.54573 21.7574 9.08071 22.019 8.99925C22.4581 8.86258 22.923 8.78962 23.409 8.78962Z" fill-rule="nonzero" fill="rgb(58, 58, 58)"/>
</svg>
