<?xml version="1.0" encoding="utf-8" ?>
<svg xmlns="http://www.w3.org/2000/svg" xmlns:xlink="http://www.w3.org/1999/xlink" width="32" height="32" viewBox="0 0 32 32">
	<path transform="matrix(1 0 0 1 0.5 0.5)" d="M17 1.5C17 0.671573 16.3284 0 15.5 0C14.6716 0 14 0.671573 14 1.5L14 14L1.5 14C0.671572 14 0 14.6716 0 15.5C0 16.3284 0.671572 17 1.5 17L14 17L14 29.5C14 30.3284 14.6716 31 15.5 31C16.3284 31 17 30.3284 17 29.5L17 17L29.5 17C30.3284 17 31 16.3284 31 15.5C31 14.6716 30.3284 14 29.5 14L17 14L17 1.5Z" fill-rule="evenodd" fill="rgb(58, 58, 58)"/>
</svg>
