<?xml version="1.0" encoding="utf-8" ?>
<svg xmlns="http://www.w3.org/2000/svg" xmlns:xlink="http://www.w3.org/1999/xlink" width="33.1313" height="33.9999" viewBox="0 0 33.1313 33.9999">
	<path transform="matrix(1 0 0 1 -7.62939e-06 0)" d="M29.5194 18.123L32.4234 20.4058Q32.9609 20.8092 33.0904 21.4644Q33.2167 22.1031 32.8935 22.6955L29.6865 28.2415Q29.3569 28.8361 28.7228 29.0625Q28.1096 29.2815 27.4906 29.0564L23.9948 27.6528Q23.0665 28.3094 22.0607 28.7767L21.5413 32.4406Q21.4564 33.12 20.9431 33.5643Q20.4399 33.9999 19.7657 33.9999L13.3657 33.9999Q12.6956 33.9999 12.1924 33.5643Q11.7187 33.1542 11.5867 32.5205L11.0538 28.7756Q10.0747 28.3175 9.12399 27.6512L5.6208 29.0583L5.58558 29.0695Q4.9843 29.2608 4.40188 29.0598Q3.75886 28.8378 3.42813 28.2415L0.222839 22.6985Q-0.0895151 22.1306 0.0359583 21.4811Q0.164544 20.8155 0.684844 20.4108L3.6173 18.1284Q3.56571 17.5974 3.56571 17Q3.56571 16.4869 3.64238 15.8651L0.734791 13.602Q0.174106 13.1972 0.0488823 12.5163Q-0.0697105 11.8714 0.265595 11.2846L3.44417 5.75957Q3.77389 5.16407 4.40854 4.93741Q5.02173 4.71842 5.64078 4.94353L9.142 6.34928Q10.1002 5.67972 11.0704 5.22466L11.596 1.51893Q11.7048 0.865932 12.1889 0.4405Q12.6902 0 13.3657 0L19.7657 0Q20.4345 0 20.9396 0.430832Q21.4422 0.859466 21.5521 1.51893L22.0775 5.22429Q23.0566 5.68239 24.0074 6.34874L27.5106 4.9416L27.5458 4.93039Q28.1471 4.73908 28.7295 4.94015Q29.3725 5.16213 29.7032 5.75839L32.9085 11.3014Q33.2209 11.8693 33.0954 12.5188Q32.9668 13.1844 32.4465 13.5891L29.5141 15.8715Q29.5656 16.4025 29.5656 17Q29.5656 17.5758 29.5194 18.123ZM27.5656 17Q27.5656 17.7502 27.4744 18.4345L27.399 19.0001L31.0575 21.8759L28.0265 27.1169L23.6894 25.3749L23.2362 25.7264Q22.0746 26.6272 20.7722 27.157L20.2396 27.3736L19.584 31.9999L13.5308 31.9999L12.8751 27.3736L12.3425 27.157Q11.0912 26.648 9.87078 25.7204L9.41924 25.3773L5.08816 27.1169L2.05748 21.8768L5.76671 18.9898L5.66877 18.4022Q5.56571 17.7839 5.56571 17Q5.56571 16.4161 5.70211 15.5977L5.80004 15.0101L2.09066 12.123L5.10516 6.8831L9.434 8.62188L9.88497 8.28136Q11.1251 7.34494 12.3592 6.84295L12.8918 6.62629L13.5475 2L19.6006 2L20.2562 6.62629L20.7889 6.84295Q22.0401 7.35193 23.2606 8.27948L23.7121 8.62265L28.0432 6.88296L31.0739 12.1231L27.3646 15.0101L27.4626 15.5977Q27.5656 16.2161 27.5656 17ZM22.5657 16.9999Q22.5657 18.2162 22.0915 19.3323Q21.6347 20.4075 20.804 21.2382Q19.9733 22.0689 18.8981 22.5257Q17.782 22.9999 16.5657 22.9999Q15.3493 22.9999 14.2333 22.5257Q13.158 22.0689 12.3273 21.2382Q11.4966 20.4075 11.0398 19.3323Q10.5657 18.2162 10.5657 16.9999Q10.5657 15.7835 11.0398 14.6674Q11.4966 13.5921 12.3273 12.7614Q13.158 11.9307 14.2333 11.4739Q15.3493 10.9998 16.5657 10.9998Q17.782 10.9998 18.8981 11.4739Q19.9733 11.9307 20.804 12.7614Q21.6347 13.5921 22.0915 14.6674Q22.5657 15.7835 22.5657 16.9999ZM20.5657 16.9999Q20.5657 16.1907 20.2508 15.4494Q19.9458 14.7317 19.3898 14.1756Q18.8338 13.6196 18.1161 13.3147Q17.3748 12.9998 16.5657 12.9998Q15.7566 12.9998 15.0153 13.3147Q14.2976 13.6196 13.7416 14.1756Q13.1855 14.7317 12.8806 15.4494Q12.5657 16.1907 12.5657 16.9999Q12.5657 17.809 12.8806 18.5503Q13.1855 19.268 13.7416 19.824Q14.2976 20.38 15.0153 20.685Q15.7566 20.9999 16.5657 20.9999Q17.3748 20.9999 18.1161 20.685Q18.8338 20.38 19.3898 19.824Q19.9458 19.268 20.2508 18.5503Q20.5657 17.809 20.5657 16.9999ZM19.5578 32.1851Q19.5572 32.1888 19.5567 32.1926L19.5578 32.1851Z" fill-rule="evenodd" fill="rgb(58, 58, 58)"/>
</svg>
